<svg width="149" height="32" fill="none" xmlns="http://www.w3.org/2000/svg"><path d="M11.027 12.271v15.253L39.325 0H23.59L11.027 12.271z" fill="#861FFF"/><path d="M0 0v23.05l11.037-10.779V0H0z" fill="#B16DFF"/><path d="M139.153 15.278c.084-.532.226-.833.374-1.126v.006c.435-.89 1.373-1.654 2.782-1.654 1.89 0 2.799 1.046 3.006 2.218.005.024.011.052.014.077.019.098.028.213.03.306 0 .008.003.017.003.027.003.083.003.143.003.143h-6.212v.003zm7.549 2.327h2.241c0-.055.056-.597.056-1.112 0-4.282-2.526-6.913-6.743-6.913-3.496 0-6.717 2.765-6.717 7.02 0 4.501 3.301 7.13 7.052 7.13 3.36 0 5.523-1.925 6.218-4.23l-3.081-.896c-.444 1.194-1.387 2.034-3.109 2.034-1.239 0-2.336-.583-2.941-1.505v.005c-.009-.008-.012-.02-.017-.027-.014-.025-.031-.047-.042-.072-.036-.06-.07-.12-.103-.183l-.042-.085a3.515 3.515 0 01-.327-1.169h7.555v.003zM87.103 12.86c-1.859 0-3.413 1.328-3.413 3.767 0 2.412 1.554 3.795 3.413 3.795 1.89 0 3.385-1.355 3.385-3.795s-1.499-3.767-3.385-3.767zm-6.994 10.464V4.203h3.637v7.247c.61-.95 2.11-1.815 4.135-1.815 3.997 0 6.302 3.009 6.302 6.968 0 4.038-2.554 7.047-6.438 7.047-1.89 0-3.33-.813-4.052-1.952v1.626h-3.584zm18.543-4.391c.084 1.057.887 2.034 2.497 2.034 1.223 0 1.806-.624 1.806-1.328 0-.597-.416-1.084-1.473-1.303l-1.803-.408c-2.637-.57-3.832-2.114-3.832-3.984 0-2.384 2.166-4.364 5.107-4.364 3.888 0 5.191 2.412 5.358 3.85l-3.081.676c-.111-.786-.695-1.788-2.249-1.788-.971 0-1.747.57-1.747 1.328 0 .649.5 1.057 1.247 1.194l1.943.405c2.693.542 4.052 2.14 4.052 4.093 0 2.168-1.722 4.392-5.302 4.392-4.108 0-5.523-2.602-5.69-4.121l3.167-.676zm20.122-8.948h-3.692v13.339h3.692V9.984zm5.804 6.669c0 2.412 1.61 3.768 3.496 3.768 1.887 0 2.83-1.222 3.134-2.251l3.249 1.057c-.611 2.223-2.749 4.498-6.383 4.498-4.027 0-7.191-2.982-7.191-7.075 0-4.12 3.111-7.074 7.077-7.074 3.72 0 5.83 2.25 6.413 4.5l-3.304 1.085c-.332-1.112-1.195-2.25-3.025-2.25-1.887.002-3.466 1.33-3.466 3.742zm-5.387-10.488c0 1.226-1.018 2.223-2.277 2.223-1.259 0-2.277-.994-2.277-2.223 0-1.227 1.018-2.224 2.277-2.224 1.259.003 2.277.997 2.277 2.224zm-10.742 1.642v15.513h3.69V4.203l-3.69 3.605zm-40.267 7.469c.08-.531.223-.832.371-1.125v.005c.436-.89 1.373-1.653 2.782-1.653 1.89 0 2.8 1.046 3.006 2.217a.734.734 0 01.014.077c.02.099.025.214.03.307 0 .008.003.016.003.027.003.082.003.142.003.142h-6.209v.003zm7.546 2.327h2.24c0-.054.057-.596.057-1.111 0-4.282-2.526-6.913-6.745-6.913-3.497 0-6.718 2.765-6.718 7.02 0 4.5 3.305 7.129 7.05 7.129 3.357 0 5.523-1.925 6.217-4.23l-3.08-.895c-.444 1.193-1.387 2.034-3.11 2.034-1.238 0-2.332-.583-2.94-1.506v.006l-.017-.028c-.014-.024-.031-.046-.042-.071a2.363 2.363 0 01-.104-.183l-.041-.085a3.65 3.65 0 01-.327-1.17h7.56v.003zM54.58 9.95l2.959 8.64 2.54-8.64h3.683l-4.298 13.41h-3.711l-3.21-9.158-3.156 9.158H45.62L41.238 9.95h3.907l2.542 8.613 2.987-8.613h3.907z" fill="#000"/></svg>